<?xml version="1.0" encoding="UTF-8" standalone="no"?>
<svg
   xmlns:dc="http://purl.org/dc/elements/1.1/"
   xmlns:cc="http://creativecommons.org/ns#"
   xmlns:rdf="http://www.w3.org/1999/02/22-rdf-syntax-ns#"
   xmlns:svg="http://www.w3.org/2000/svg"
   xmlns="http://www.w3.org/2000/svg"
   viewBox="0 0 765 990"
   height="990"
   width="765"
   xml:space="preserve"
   version="1.1"
   id="svglogow"><metadata
     id="metadata8"><rdf:RDF><cc:Work
         rdf:about=""><dc:format>image/svg+xml</dc:format><dc:type
           rdf:resource="http://purl.org/dc/dcmitype/StillImage" /></cc:Work></rdf:RDF></metadata><defs
     id="defs6">
     <clipPath
       id="clipPath16"
       clipPathUnits="userSpaceOnUse"><path
         id="path18"
         d="M 0,792 612,792 612,0 0,0 0,792 Z" /></clipPath></defs><g
     transform="matrix(1.25,0,0,-1.25,0,990)"
     id="g10"><g
       id="g12"><g
         clip-path="url(#clipPath16)"
         id="g14"><g
           transform="translate(207.4927,449.9277)"
           id="g20"><path
             id="path22"
             style="fill-opacity:1;fill-rule:nonzero;stroke:none"
             d="M 0,0 C 4.752,0 6.908,-1.776 7.114,-6.829 L 7.111,-27.198 c 0.041,-9.59 -24.514,-7.955 -24.514,-7.955 L -17.392,0 0,0 Z M 10.809,-7.679 C 10.84,-2.335 10.542,-0.531 9.09,1.292 6.729,4.263 2.28,4.075 -2.882,4.067 l -18.232,0 0,-44.722 0,-37.8 3.722,0 -0.011,32.301 c 0,0 24.555,1.636 24.514,-7.957 l 0.003,-24.344 3.698,0 0,11.325 0,1.628 0,13.724 c -0.457,6.928 -10.824,9.473 -17.656,9.636 l -3.906,0 c -0.821,0 -1.488,0.666 -1.488,1.487 0,0.822 0.667,1.487 1.488,1.487 l 3.906,0 c 6.832,0.166 17.199,2.711 17.656,9.634 l -0.003,21.855 z" /></g><path
           id="path24"
           style="fill-opacity:1;fill-rule:nonzero;stroke:none"
           d="m 526.758,371.473 -295.613,0 0,3.028 295.613,0 0,-3.028 z" /><path
           id="path26"
           style="fill-opacity:1;fill-rule:nonzero;stroke:none"
           d="m 173.428,371.473 -88.428,0 0,3.028 88.428,0 0,-3.028 z" /><g
           transform="translate(85,394.1104)"
           id="g28"><path
             id="path30"
             style="fill-opacity:1;fill-rule:nonzero;stroke:none"
             d="m 0,0 0,37.044 3.276,0 0,-34.043 19.325,0 L 22.601,0 0,0 Z" /></g><g
           transform="translate(144.2119,427.0459)"
           id="g32"><path
             id="path34"
             style="fill-opacity:1;fill-rule:nonzero;stroke:none"
             d="m 0,0 -7.163,-19.106 14.273,0 L 0,0 Z m 12.387,-32.936 -4.165,10.944 -16.495,0 -4.111,-10.944 -3.441,0 14.325,37.044 3.111,0 14.328,-37.044 -3.552,0 z" /></g><path
           id="path36"
           style="fill-opacity:1;fill-rule:nonzero;stroke:none"
           d="m 170.152,431.154 3.276,0 0,-37.044 -3.276,0 0,37.044 z" /><g
           transform="translate(231.1118,394.1104)"
           id="g38"><path
             id="path40"
             style="fill-opacity:1;fill-rule:nonzero;stroke:none"
             d="m 0,0 0,37.044 23.16,0 0,-3.001 -19.938,0 0,-13.549 19.381,0 0,-2.944 -19.381,0 0,-14.549 19.938,0 L 23.16,0 0,0 Z" /></g><g
           transform="translate(299.603,394.1104)"
           id="g42"><path
             id="path44"
             style="fill-opacity:1;fill-rule:nonzero;stroke:none"
             d="m 0,0 -3.108,0 -13.774,37.044 3.499,0 11.94,-32.822 11.94,32.822 3.384,0 L 0,0 Z" /></g><path
           id="path46"
           style="fill-opacity:1;fill-rule:nonzero;stroke:none"
           d="m 322.249,431.154 3.28,0 0,-37.044 -3.28,0 0,37.044 z" /><g
           transform="translate(349.9385,393.666)"
           id="g48"><path
             id="path50"
             style="fill-opacity:1;fill-rule:nonzero;stroke:none"
             d="m 0,0 c -9.499,0 -13.829,2.502 -13.829,10.109 l 3.223,0 c 0,-5.333 2.553,-6.997 10.718,-6.997 8.218,0 10.494,2.278 10.494,7.997 0,3.109 -0.777,4.998 -2.276,5.776 -1.722,0.944 -5,0.888 -8.33,0.944 -7.219,0.109 -13.829,-0.056 -13.829,9.497 0,7.997 3.999,10.55 13.719,10.55 9.496,0 13.66,-2.497 13.66,-9.996 l -3.111,0 c 0,6.499 -4.332,6.887 -10.661,6.887 -8.22,0 -10.331,-1.723 -10.331,-7.387 0,-3.109 0.89,-4.722 2.335,-5.496 1.777,-0.946 5.05,-0.946 8.33,-1.002 C 7.22,20.771 13.995,21.106 13.94,11.388 13.94,3.501 9.887,0 0,0" /></g><g
           transform="translate(399.4932,404.3877)"
           id="g52"><path
             id="path54"
             style="fill-opacity:1;fill-rule:nonzero;stroke:none"
             d="m 0,0 c -0.055,-1.888 -0.275,-3.109 -0.779,-4.333 -1.611,-4.275 -5.994,-6.33 -12.325,-6.33 -6.275,0 -10.664,2.055 -12.331,6.33 -0.442,1.224 -0.668,2.445 -0.776,4.333 -0.059,1.832 -0.111,4.441 -0.111,8.44 l 0,18.327 3.277,0 0,-18.327 c 0,-6.107 -0.279,-10.106 0.999,-12.383 1.222,-2.165 3.942,-3.61 8.942,-3.61 5.049,0 7.775,1.445 8.94,3.61 1.332,2.277 1,6.276 1,12.383 l 0,18.327 3.274,0 0,-18.327 C 0.11,4.441 0.11,1.832 0,0" /></g><g
           transform="translate(409.5654,394.1104)"
           id="g56"><path
             id="path58"
             style="fill-opacity:1;fill-rule:nonzero;stroke:none"
             d="m 0,0 0,37.044 23.159,0 0,-3.001 -19.937,0 0,-13.549 19.382,0 0,-2.944 -19.382,0 0,-14.549 19.937,0 L 23.159,0 0,0 Z" /></g><g
           transform="translate(441.8711,394.1104)"
           id="g60"><path
             id="path62"
             style="fill-opacity:1;fill-rule:nonzero;stroke:none"
             d="m 0,0 0,37.044 3.275,0 0,-34.043 19.327,0 L 22.602,0 0,0 Z" /></g><g
           transform="translate(472.833,394.1104)"
           id="g64"><path
             id="path66"
             style="fill-opacity:1;fill-rule:nonzero;stroke:none"
             d="m 0,0 0,37.044 3.272,0 0,-34.043 19.326,0 L 22.598,0 0,0 Z" /></g><g
           transform="translate(503.5957,394.1104)"
           id="g68"><path
             id="path70"
             style="fill-opacity:1;fill-rule:nonzero;stroke:none"
             d="m 0,0 0,37.044 23.162,0 0,-3.001 -19.942,0 0,-13.549 19.385,0 0,-2.944 -19.385,0 0,-14.549 19.942,0 L 23.162,0 0,0 Z" /></g><g
           transform="translate(239.9478,353.3311)"
           id="g72"><path
             id="path74"
             style="fill-opacity:1;fill-rule:nonzero;stroke:none"
             d="m 0,0 c -0.526,0.772 -1.47,1.174 -3.455,1.174 -1.991,0 -2.894,-0.421 -3.439,-1.192 -0.482,-0.713 -0.666,-1.365 -0.666,-4.777 0,-3.413 0.184,-4.087 0.666,-4.798 0.545,-0.774 1.466,-1.175 3.459,-1.175 1.986,0 2.909,0.421 3.435,1.198 0.502,0.711 0.671,1.381 0.671,4.796 C 0.671,-1.361 0.502,-0.711 0,0 m -3.435,-11.941 c -5.385,0 -5.365,2.871 -5.365,7.167 0,4.296 -0.041,7.121 5.345,7.121 5.402,0 5.36,-2.807 5.36,-7.1 0,-4.299 0.061,-7.188 -5.34,-7.188" /></g><g
           transform="translate(251.7959,350.6299)"
           id="g76"><path
             id="path78"
             style="fill-opacity:1;fill-rule:nonzero;stroke:none"
             d="m 0,0 c -2.559,0 -3.437,-0.86 -3.437,-4.046 0,-3.182 0.878,-4.02 3.437,-4.02 2.493,0 2.804,1.403 2.804,4.02 C 2.804,-1.426 2.493,0 0,0 m -0.107,-9.24 c -1.571,0 -2.617,0.441 -3.31,1.3 l 0,-5.133 -1.214,0 0,14.059 1.173,0 0,-1.219 c 0.651,0.903 1.78,1.385 3.351,1.385 3.813,0 4.127,-2.177 4.127,-5.219 0,-2.761 -0.211,-5.173 -4.127,-5.173" /></g><g
           transform="translate(264.6499,341.3896)"
           id="g80"><path
             id="path82"
             style="fill-opacity:1;fill-rule:nonzero;stroke:none"
             d="m 0,0 c -2.199,0 -3.266,0.904 -3.266,2.997 l 0,6.137 -1.7,0 0,1.093 1.7,0 0,3.914 1.213,0 0,-3.914 4.588,0 0,-1.093 -4.588,0 0,-6.137 c 0,-1.446 0.629,-1.908 2.095,-1.908 1.592,0 2.198,0.572 2.198,1.929 l 1.136,0 C 3.376,0.817 2.076,0 0,0" /></g><g
           transform="translate(276.165,350.6299)"
           id="g84"><path
             id="path86"
             style="fill-opacity:1;fill-rule:nonzero;stroke:none"
             d="m 0,0 c -3.121,0 -3.248,-1.405 -3.248,-4.004 0,-2.596 0.127,-4.062 3.248,-4.062 3.123,0 3.228,1.488 3.228,4.062 C 3.228,-1.296 3.038,0 0,0 M 3.478,-8.129 C 2.726,-8.905 1.656,-9.24 0,-9.24 c -1.655,0 -2.723,0.335 -3.498,1.111 -0.733,0.775 -0.963,1.906 -0.963,4.083 0,2.182 0.23,3.309 0.963,4.087 0.775,0.774 1.843,1.111 3.498,1.111 1.656,0 2.726,-0.337 3.478,-1.111 0.757,-0.778 0.963,-1.905 0.963,-4.087 0,-2.177 -0.206,-3.308 -0.963,-4.083" /></g><g
           transform="translate(298.1128,341.5586)"
           id="g88"><path
             id="path90"
             style="fill-opacity:1;fill-rule:nonzero;stroke:none"
             d="m 0,0 0,6.118 c 0,1.843 0,2.953 -2.262,2.953 -2.871,0 -2.788,-2.449 -2.788,-4.567 l 0,-4.504 -1.213,0 0,6.118 c 0,1.843 0,2.953 -2.262,2.953 -2.871,0 -2.786,-2.494 -2.786,-4.608 l 0,-4.463 -1.219,0 0,10.058 1.175,0 0,-1.179 c 0.523,0.779 1.465,1.345 3.015,1.345 1.511,0 2.538,-0.522 2.978,-1.615 0.708,1.093 1.758,1.615 3.265,1.615 1.51,0 2.6,-0.522 3.04,-1.591 C 1.258,7.854 1.217,7.081 1.217,6.077 L 1.217,0 0,0 Z" /></g><g
           transform="translate(307.9482,352.8945)"
           id="g92"><path
             id="path94"
             style="fill-opacity:1;fill-rule:nonzero;stroke:none"
             d="M 0,0 -1.403,0 1.299,2.636 2.7,2.636 0,0 Z m 0.463,-2.224 c -2.348,0 -3.059,-1.027 -3.059,-3.266 l 6.158,0 c 0,2.429 -0.671,3.266 -3.099,3.266 m -3.078,-4.377 c 0,-2.533 0.335,-3.77 3.158,-3.77 1.36,0 2.912,0.207 2.912,1.884 l 1.134,0 c 0,-2.43 -1.95,-3.018 -4.065,-3.018 -3.857,0 -4.356,1.911 -4.356,5.155 0,3.311 0.564,5.238 4.295,5.238 4.084,0 4.27,-2.139 4.27,-5.489 l -7.348,0 z" /></g><g
           transform="translate(321.5176,341.3896)"
           id="g96"><path
             id="path98"
             style="fill-opacity:1;fill-rule:nonzero;stroke:none"
             d="m 0,0 c -2.201,0 -3.269,0.904 -3.269,2.997 l 0,6.137 -1.696,0 0,1.093 1.696,0 0,3.914 1.218,0 0,-3.914 4.586,0 0,-1.093 -4.586,0 0,-6.137 c 0,-1.446 0.627,-1.908 2.094,-1.908 1.589,0 2.199,0.572 2.199,1.929 l 1.131,0 C 3.373,0.817 2.072,0 0,0" /></g><g
           transform="translate(335.332,348.8477)"
           id="g100"><path
             id="path102"
             style="fill-opacity:1;fill-rule:nonzero;stroke:none"
             d="m 0,0 c 0,1.384 -0.579,1.782 -2.177,1.782 -2.952,0 -2.783,-2.682 -2.783,-4.714 l 0,-4.357 -1.215,0 0,10.058 1.173,0 0,-1.179 c 0.71,0.966 1.738,1.345 3.059,1.345 C 0.068,2.935 1.133,2.013 1.133,0 L 0,0 Z" /></g><path
           id="path104"
           style="fill-opacity:1;fill-rule:nonzero;stroke:none"
           d="m 340.402,351.616 1.214,0 0,-10.058 -1.214,0 0,10.058 z m 0.607,2.447 c -0.525,0 -0.8,0.317 -0.8,0.821 0,0.521 0.275,0.794 0.8,0.794 0.524,0 0.816,-0.273 0.816,-0.794 0,-0.504 -0.292,-0.821 -0.816,-0.821" /><g
           transform="translate(350.4932,341.3896)"
           id="g106"><path
             id="path108"
             style="fill-opacity:1;fill-rule:nonzero;stroke:none"
             d="m 0,0 c -2.726,0 -4.022,0.772 -4.022,3.018 l 1.132,0 c 0,-1.382 0.69,-1.844 2.868,-1.844 2.264,0 3.039,0.507 3.039,1.716 0,1.763 -0.526,1.7 -2.831,1.783 -2.131,0.061 -4.04,-0.063 -4.04,2.765 0,2.287 1.464,2.955 4.233,2.955 2.429,0 3.85,-0.692 3.85,-3.017 l -1.131,0 c 0,1.34 -0.65,1.886 -2.702,1.886 -2.279,0 -3.04,-0.46 -3.04,-1.657 0,-1.822 0.717,-1.653 2.665,-1.741 C 2.176,5.761 4.229,6.015 4.229,3.038 4.229,0.755 2.786,0 0,0" /></g><g
           transform="translate(363.4102,341.3896)"
           id="g110"><path
             id="path112"
             style="fill-opacity:1;fill-rule:nonzero;stroke:none"
             d="m 0,0 c -2.198,0 -3.268,0.904 -3.268,2.997 l 0,6.137 -1.697,0 0,1.093 1.697,0 0,3.914 1.216,0 0,-3.914 4.587,0 0,-1.093 -4.587,0 0,-6.137 c 0,-1.446 0.631,-1.908 2.096,-1.908 1.59,0 2.194,0.572 2.194,1.929 l 1.138,0 C 3.376,0.817 2.073,0 0,0" /></g><g
           transform="translate(374.7598,350.6709)"
           id="g114"><path
             id="path116"
             style="fill-opacity:1;fill-rule:nonzero;stroke:none"
             d="m 0,0 c -2.348,0 -3.062,-1.027 -3.062,-3.267 l 6.164,0 C 3.102,-0.837 2.429,0 0,0 m -3.082,-4.377 c 0,-2.533 0.336,-3.77 3.167,-3.77 1.357,0 2.911,0.207 2.911,1.883 l 1.13,0 c 0,-2.429 -1.95,-3.017 -4.063,-3.017 -3.86,0 -4.359,1.911 -4.359,5.155 0,3.311 0.567,5.237 4.296,5.237 4.082,0 4.273,-2.138 4.273,-5.488 l -7.355,0 z" /></g><g
           transform="translate(387.5742,341.3896)"
           id="g118"><path
             id="path120"
             style="fill-opacity:1;fill-rule:nonzero;stroke:none"
             d="m 0,0 c -2.727,0 -4.022,0.772 -4.022,3.018 l 1.129,0 c 0,-1.382 0.69,-1.844 2.871,-1.844 2.262,0 3.039,0.507 3.039,1.716 0,1.763 -0.523,1.7 -2.829,1.783 -2.138,0.061 -4.042,-0.063 -4.042,2.765 0,2.287 1.464,2.955 4.232,2.955 2.427,0 3.854,-0.692 3.854,-3.017 l -1.129,0 c 0,1.34 -0.65,1.886 -2.705,1.886 -2.287,0 -3.042,-0.46 -3.042,-1.657 0,-1.822 0.714,-1.653 2.665,-1.741 C 2.179,5.761 4.232,6.015 4.232,3.038 4.232,0.755 2.782,0 0,0" /></g><g
           transform="translate(434.2002,353.3311)"
           id="g122"><path
             id="path124"
             style="fill-opacity:1;fill-rule:nonzero;stroke:none"
             d="m 0,0 c -0.52,0.772 -1.466,1.174 -3.457,1.174 -1.986,0 -2.893,-0.421 -3.434,-1.192 -0.48,-0.713 -0.671,-1.365 -0.671,-4.777 0,-3.413 0.191,-4.087 0.671,-4.798 0.541,-0.774 1.466,-1.175 3.456,-1.175 1.995,0 2.915,0.421 3.435,1.198 0.504,0.711 0.668,1.381 0.668,4.796 C 0.668,-1.361 0.504,-0.711 0,0 m -3.435,-11.941 c -5.38,0 -5.369,2.871 -5.369,7.167 0,4.296 -0.037,7.121 5.347,7.121 5.403,0 5.361,-2.807 5.361,-7.1 0,-4.299 0.064,-7.188 -5.339,-7.188" /></g><g
           transform="translate(446.0488,350.6299)"
           id="g126"><path
             id="path128"
             style="fill-opacity:1;fill-rule:nonzero;stroke:none"
             d="m 0,0 c -2.557,0 -3.435,-0.86 -3.435,-4.046 0,-3.182 0.878,-4.02 3.435,-4.02 2.491,0 2.809,1.403 2.809,4.02 C 2.809,-1.426 2.491,0 0,0 m -0.108,-9.24 c -1.572,0 -2.616,0.441 -3.309,1.3 l 0,-5.133 -1.213,0 0,14.059 1.175,0 0,-1.219 c 0.647,0.903 1.775,1.385 3.347,1.385 3.814,0 4.13,-2.177 4.13,-5.219 0,-2.761 -0.209,-5.173 -4.13,-5.173" /></g><g
           transform="translate(458.9023,341.3896)"
           id="g130"><path
             id="path132"
             style="fill-opacity:1;fill-rule:nonzero;stroke:none"
             d="m 0,0 c -2.194,0 -3.268,0.904 -3.268,2.997 l 0,6.137 -1.693,0 0,1.093 1.693,0 0,3.914 1.217,0 0,-3.914 4.587,0 0,-1.093 -4.587,0 0,-6.137 c 0,-1.446 0.626,-1.908 2.094,-1.908 1.593,0 2.198,0.572 2.198,1.929 l 1.14,0 C 3.381,0.817 2.076,0 0,0" /></g><path
           id="path134"
           style="fill-opacity:1;fill-rule:nonzero;stroke:none"
           d="m 466.544,351.616 1.217,0 0,-10.058 -1.217,0 0,10.058 z m 0.611,2.447 c -0.528,0 -0.8,0.317 -0.8,0.821 0,0.521 0.272,0.794 0.8,0.794 0.525,0 0.815,-0.273 0.815,-0.794 0,-0.504 -0.29,-0.821 -0.815,-0.821" /><g
           transform="translate(477.1191,341.3896)"
           id="g136"><path
             id="path138"
             style="fill-opacity:1;fill-rule:nonzero;stroke:none"
             d="m 0,0 c -3.982,0 -4.376,2.034 -4.376,5.173 0,3.146 0.394,5.22 4.376,5.22 2.141,0 4.062,-0.566 4.062,-3.017 l -1.126,0 c 0,1.672 -1.533,1.864 -2.914,1.864 -2.998,0 -3.181,-1.384 -3.181,-4.024 0,-2.639 0.183,-4.042 3.181,-4.042 1.381,0 2.914,0.167 2.914,1.844 l 1.126,0 C 4.062,0.567 2.141,0 0,0" /></g><path
           id="path140"
           style="fill-opacity:1;fill-rule:nonzero;stroke:none"
           d="m 485.994,351.616 1.218,0 0,-10.058 -1.218,0 0,10.058 z m 0.607,2.447 c -0.52,0 -0.795,0.317 -0.795,0.821 0,0.521 0.275,0.794 0.795,0.794 0.524,0 0.817,-0.273 0.817,-0.794 0,-0.504 -0.293,-0.821 -0.817,-0.821" /><g
           transform="translate(496.4902,350.6709)"
           id="g142"><path
             id="path144"
             style="fill-opacity:1;fill-rule:nonzero;stroke:none"
             d="m 0,0 c -2.351,0 -3.06,-1.027 -3.06,-3.267 l 6.16,0 C 3.1,-0.837 2.427,0 0,0 m -3.081,-4.377 c 0,-2.533 0.334,-3.77 3.164,-3.77 1.358,0 2.909,0.207 2.909,1.883 l 1.129,0 c 0,-2.429 -1.943,-3.017 -4.062,-3.017 -3.856,0 -4.355,1.911 -4.355,5.155 0,3.311 0.566,5.237 4.296,5.237 4.081,0 4.271,-2.138 4.271,-5.488 l -7.352,0 z" /></g><g
           transform="translate(512.6543,341.5586)"
           id="g146"><path
             id="path148"
             style="fill-opacity:1;fill-rule:nonzero;stroke:none"
             d="m 0,0 0,5.301 c 0,2.407 0.229,3.77 -2.578,3.77 -3.143,0 -3.12,-2.114 -3.12,-4.483 l 0,-4.588 -1.214,0 0,10.058 1.171,0 0,-1.179 c 0.647,0.862 1.655,1.345 3.249,1.345 3.999,0 3.707,-2.413 3.707,-4.923 L 1.215,0 0,0 Z" /></g><g
           transform="translate(522.5557,341.3896)"
           id="g150"><path
             id="path152"
             style="fill-opacity:1;fill-rule:nonzero;stroke:none"
             d="m 0,0 c -2.725,0 -4.024,0.772 -4.024,3.018 l 1.128,0 c 0,-1.382 0.694,-1.844 2.872,-1.844 2.264,0 3.041,0.507 3.041,1.716 0,1.763 -0.527,1.7 -2.831,1.783 -2.139,0.061 -4.042,-0.063 -4.042,2.765 0,2.287 1.466,2.955 4.226,2.955 2.434,0 3.858,-0.692 3.858,-3.017 l -1.131,0 c 0,1.34 -0.649,1.886 -2.705,1.886 -2.28,0 -3.034,-0.46 -3.034,-1.657 0,-1.822 0.711,-1.653 2.662,-1.741 C 2.175,5.761 4.228,6.015 4.228,3.038 4.228,0.755 2.783,0 0,0" /></g><path
           id="path154"
           style="fill-opacity:1;fill-rule:nonzero;stroke:none"
           d="m 413.079,345.853 -8.996,0 0,1.952 8.996,0 0,-1.952 z" /><path
           id="path156"
           style="fill-opacity:1;fill-rule:nonzero;stroke:none"
           d="m 116.709,431.154 -2.758,0 0,-10.59 2.758,0 0,10.59 z" /></g></g></g></svg>