<?xml version="1.0" standalone="no"?>
<!DOCTYPE svg PUBLIC "-//W3C//DTD SVG 20010904//EN"
 "http://www.w3.org/TR/2001/REC-SVG-20010904/DTD/svg10.dtd">
<svg version="1.0" xmlns="http://www.w3.org/2000/svg"
 width="346.000000pt" height="346.000000pt" viewBox="0 0 346.000000 346.000000"
 preserveAspectRatio="xMidYMid meet">
<metadata>
Created by potrace 1.11, written by Peter Selinger 2001-2013
</metadata>
<g transform="translate(0.000000,346.000000) scale(0.100000,-0.100000)"
fill="#000000" stroke="none">
<path d="M1070 1740 l0 -1720 80 0 80 0 2 673 3 672 180 -1 c215 -1 307 -8
438 -35 217 -44 344 -119 383 -227 10 -29 13 -152 14 -559 l0 -523 78 0 78 0
0 583 c-1 576 -2 582 -23 630 -81 177 -371 295 -739 302 -174 3 -194 10 -194
60 0 49 24 59 155 61 105 1 243 11 275 19 8 2 31 7 50 10 63 11 214 65 275
100 76 42 146 111 176 172 l23 48 0 580 c0 435 -3 594 -13 637 -16 74 -64 145
-121 180 -87 54 -136 58 -692 58 l-508 0 0 -1720z m1030 1527 c51 -20 85 -49
108 -92 37 -73 41 -116 42 -578 1 -522 0 -527 -76 -597 -84 -77 -218 -125
-442 -156 -108 -15 -428 -25 -479 -16 l-23 4 0 730 0 729 413 -3 c362 -3 417
-6 457 -21z"/>
</g>
</svg>
